<svg width="208" height="46" viewBox="0 0 208 46" fill="none" xmlns="http://www.w3.org/2000/svg">
<g clip-path="url(#clip0_629_12)">
<path d="M45.7602 17.2962C44.8558 16.9282 44.1324 16.7442 43.4089 16.7442C42.6854 16.7442 41.781 16.3762 41.4193 15.6402L38.7063 10.8562C38.3445 10.1202 38.3445 9.2002 38.7063 8.4642C39.2489 7.5442 39.6106 6.2562 39.4297 4.9682C39.2489 2.3922 37.0784 0.184206 34.5463 0.000205859C32.195 -0.183794 30.2054 0.920206 29.1202 2.7602C28.7584 3.4962 28.035 3.8642 27.1306 3.8642H21.8854C21.1619 3.8642 20.2576 3.3122 19.8958 2.7602C18.8106 0.920206 16.821 -0.183794 14.4697 0.000205859C12.1184 0.368206 9.94796 2.5762 9.76709 5.1522C9.58622 6.4402 9.94796 7.5442 10.4906 8.6482C10.8523 9.2002 11.0332 10.1202 10.4906 10.8562L7.9584 15.6402C7.41579 16.3762 6.69231 16.7442 5.78796 16.7442C5.24535 16.7442 4.88361 16.7442 4.341 16.9282C2.17057 17.4802 0.361878 19.3202 0.000139102 21.5282C-0.54247 25.0242 1.9897 28.1522 5.42622 28.1522H5.60709C6.33057 28.1522 7.23492 28.5202 7.59666 29.2562L10.3097 34.0402C10.6714 34.7762 10.6714 35.6962 10.3097 36.4322C9.76709 37.3522 9.40535 38.6402 9.58622 39.7442C9.76709 42.3202 11.9375 44.5282 14.4697 44.7122C16.6401 44.8962 18.8106 43.7922 19.8958 41.9522C20.2576 41.2162 20.981 40.8482 21.8854 40.8482H27.3115C28.035 40.8482 28.9393 41.4002 29.301 41.9522C30.2054 43.6082 32.195 44.7122 34.1845 44.7122C37.0784 44.7122 39.6106 42.1362 39.6106 39.1922C39.7915 36.0642 37.2593 33.4882 34.0037 33.4882C31.8332 33.4882 29.8437 34.7762 28.9393 36.6162C28.5776 37.3522 27.8541 37.9042 26.9497 37.9042H22.0663C21.1619 37.9042 20.4384 37.3522 20.0767 36.6162C19.1723 34.7762 17.1827 33.4882 15.0123 33.4882C14.8314 33.4882 14.8314 33.4882 14.6506 33.4882C13.9271 33.4882 13.0227 33.1202 12.661 32.3842L9.94796 27.7842C9.58622 27.0482 9.58622 26.1282 9.94796 25.3922C9.94796 25.3922 9.94796 25.3922 9.94796 25.2082C10.3097 24.4722 11.0332 24.1042 11.9375 24.1042H17.5445C18.4489 24.1042 19.1723 24.6562 19.5341 25.3922C20.4384 27.0482 22.2471 28.1522 24.2367 28.1522C26.2263 28.1522 28.035 27.0482 29.1202 25.2082C29.4819 24.4722 30.2054 23.9202 31.1097 23.9202H37.9828C38.5254 26.3122 40.6958 27.9682 43.4089 27.9682C46.6645 27.9682 49.1967 25.0242 49.0158 21.7122C48.835 19.8722 47.5689 18.0322 45.7602 17.2962ZM24.5984 16.7442C22.428 16.7442 20.6193 18.0322 19.715 19.8722C19.3532 20.6082 18.6297 20.9762 17.7254 20.9762H12.4801C11.5758 20.9762 10.8523 20.4242 10.4906 19.6882C10.4906 19.5042 10.3097 19.5042 10.3097 19.3202C9.94796 18.5842 9.76709 17.8482 10.3097 17.1122L13.0227 12.1442C13.3845 11.4082 14.2888 11.0402 15.0123 11.0402H15.1932C17.3636 11.0402 19.1723 9.7522 20.0767 7.9122C20.4384 7.1762 21.1619 6.6242 22.0663 6.6242H27.1306C27.8541 6.6242 28.7584 7.1762 29.1202 7.9122C30.0245 9.7522 31.8332 11.0402 34.0037 11.0402H34.1845C35.0889 11.0402 35.8123 11.4082 36.1741 12.1442L38.7063 16.7442C39.068 17.4802 39.2489 18.4002 38.7063 19.1362C38.3445 19.6882 38.1637 20.0562 38.1637 20.7922H31.2906C30.3863 20.7922 29.6628 20.2402 29.301 19.5042C28.3967 18.0322 26.588 16.7442 24.5984 16.7442Z" fill="url(#paint0_linear_629_12)"/>
<path d="M74.1563 15.6402C74.6989 15.6402 75.0606 15.4562 75.4224 15.0882C75.7841 14.7202 75.965 14.3522 75.965 13.9842C75.965 13.4322 75.7841 13.0642 75.4224 12.6962C75.0606 12.3282 74.6989 12.1442 74.1563 12.1442H64.7511C64.2085 12.1442 63.8467 12.3282 63.485 12.6962C63.1233 13.0642 62.9424 13.4322 62.9424 13.9842V30.5442C62.9424 31.0962 63.1233 31.4642 63.485 31.8322C63.8467 32.2002 64.2085 32.3842 64.7511 32.3842H74.1563C74.6989 32.3842 75.0606 32.2002 75.4224 31.8322C75.7841 31.4642 75.965 31.0962 75.965 30.7282C75.965 30.1762 75.7841 29.9922 75.4224 29.6242C75.0606 29.2562 74.6989 29.0722 74.1563 29.0722H66.5598V23.7362H72.8902C73.4328 23.7362 73.7946 23.5522 74.1563 23.1842C74.518 22.8162 74.6989 22.4482 74.6989 22.0802C74.6989 21.5282 74.518 21.1602 74.1563 20.7922C73.7946 20.4242 73.4328 20.2402 72.8902 20.2402H66.5598V15.4562L74.1563 15.6402ZM96.2224 16.7442C95.1372 16.7442 94.052 17.1122 93.1476 17.6642C92.2433 18.2162 91.5198 19.1362 91.158 19.8722C90.6154 17.8482 88.9876 16.7442 86.6363 16.7442C85.732 16.7442 84.8276 16.9282 84.1041 17.4802C83.3807 18.0322 82.6572 18.5842 82.1146 19.3202V18.7682C82.1146 18.2162 81.9337 17.8482 81.572 17.4802C81.2102 17.1122 80.8485 16.9282 80.3059 16.9282C79.7633 16.9282 79.4015 17.1122 79.0398 17.4802C78.678 17.8482 78.4972 18.2162 78.4972 18.7682V30.7282C78.4972 31.2802 78.678 31.6482 79.0398 32.0162C79.4015 32.3842 79.7633 32.5682 80.3059 32.5682C80.8485 32.5682 81.2102 32.3842 81.572 32.0162C81.9337 31.6482 82.1146 31.2802 82.1146 30.7282V23.3682C82.1146 22.4482 82.4763 21.5282 83.0189 20.9762C83.5615 20.4242 84.4659 20.0562 85.5511 20.0562C86.6363 20.0562 87.3598 20.4242 87.7215 20.9762C88.0833 21.5282 88.2641 22.4482 88.2641 23.5522V30.9122C88.2641 31.4642 88.445 31.8322 88.8067 32.2002C89.1685 32.5682 89.5302 32.7522 90.0728 32.7522C90.6154 32.7522 90.9772 32.5682 91.3389 32.2002C91.7007 31.8322 91.8815 31.4642 91.8815 30.9122V23.5522C91.8815 22.6322 92.2433 21.7122 92.7859 21.1602C93.3285 20.6082 94.2328 20.2402 95.318 20.2402C96.4033 20.2402 97.1267 20.6082 97.4885 21.1602C97.8502 21.7122 98.0311 22.6322 98.0311 23.7362V31.0962C98.0311 31.6482 98.212 32.0162 98.5737 32.3842C98.9354 32.7522 99.2972 32.9362 99.8398 32.9362C100.382 32.9362 100.744 32.7522 101.106 32.3842C101.468 32.0162 101.648 31.6482 101.648 31.0962V23.7362C101.648 21.7122 101.287 20.0562 100.563 18.9522C99.478 17.4802 98.0311 16.7442 96.2224 16.7442ZM116.48 17.8482C115.395 17.1122 114.309 16.9282 113.043 16.9282C112.139 16.9282 111.235 17.1122 110.511 17.4802C109.788 17.8482 109.064 18.4002 108.702 18.9522V18.7682C108.702 18.2162 108.522 17.8482 108.16 17.4802C107.798 17.1122 107.436 16.9282 106.894 16.9282C106.351 16.9282 105.989 17.1122 105.628 17.4802C105.266 17.8482 105.085 18.2162 105.085 18.7682V36.4322C105.085 36.9842 105.266 37.3522 105.628 37.7202C105.989 38.0882 106.351 38.2722 106.894 38.2722C107.436 38.2722 107.798 38.0882 108.16 37.7202C108.522 37.3522 108.702 36.9842 108.702 36.4322V30.7282C109.245 31.2802 109.968 31.6482 110.692 32.0162C111.415 32.3842 112.32 32.5682 113.224 32.5682C114.49 32.5682 115.575 32.2002 116.661 31.6482C117.746 30.9122 118.469 29.9922 119.193 28.7042C119.735 27.4162 120.097 26.1282 120.097 24.4722C120.097 23.0002 119.735 21.5282 119.193 20.4242C118.469 19.5042 117.565 18.5842 116.48 17.8482ZM115.575 28.3362C114.852 29.2562 113.767 29.8082 112.501 29.8082C111.235 29.8082 110.33 29.2562 109.426 28.3362C108.522 27.4162 108.341 26.3122 108.341 24.8402C108.341 23.3682 108.702 22.2642 109.426 21.3442C110.149 20.4242 111.235 20.0562 112.501 20.0562C113.767 20.0562 114.671 20.6082 115.575 21.3442C116.299 22.2642 116.661 23.3682 116.661 24.8402C116.661 26.1282 116.299 27.2322 115.575 28.3362ZM131.13 16.7442C130.226 16.7442 129.322 16.9282 128.598 17.4802C127.875 18.0322 127.151 18.5842 126.608 19.3202V12.8802C126.608 12.3282 126.428 11.9602 126.066 11.5922C125.704 11.2242 125.342 11.0402 124.8 11.0402C124.257 11.0402 123.895 11.2242 123.534 11.5922C123.172 11.9602 122.991 12.3282 122.991 12.8802V30.7282C122.991 31.2802 123.172 31.6482 123.534 32.0162C123.895 32.3842 124.257 32.5682 124.8 32.5682C125.342 32.5682 125.704 32.3842 126.066 32.0162C126.428 31.6482 126.608 31.2802 126.608 30.7282V23.3682C126.608 22.4482 126.97 21.5282 127.513 20.9762C128.055 20.4242 128.96 20.0562 130.045 20.0562C131.13 20.0562 131.854 20.4242 132.215 20.9762C132.577 21.5282 132.758 22.4482 132.758 23.5522V30.9122C132.758 31.4642 132.939 31.8322 133.301 32.2002C133.662 32.5682 134.024 32.7522 134.567 32.7522C135.109 32.7522 135.471 32.5682 135.833 32.2002C136.195 31.8322 136.375 31.4642 136.375 30.9122V23.5522C136.375 21.5282 136.014 19.8722 135.29 18.7682C134.205 17.4802 132.939 16.7442 131.13 16.7442ZM152.292 16.7442C151.749 16.7442 151.388 16.9282 151.026 17.2962C150.664 17.6642 150.483 18.0322 150.483 18.5842C149.941 18.0322 149.217 17.6642 148.494 17.2962C147.77 16.9282 146.866 16.7442 145.962 16.7442C144.695 16.7442 143.61 17.1122 142.525 17.6642C141.44 18.4002 140.716 19.3202 139.993 20.6082C139.45 21.8962 139.088 23.1842 139.088 24.8402C139.088 26.3122 139.45 27.7842 139.993 28.8882C140.535 30.1762 141.44 31.0962 142.525 31.6482C143.61 32.3842 144.695 32.5682 145.962 32.5682C146.866 32.5682 147.77 32.3842 148.494 32.0162C149.217 31.6482 149.941 31.0962 150.302 30.5442C150.302 31.0962 150.483 31.4642 150.845 31.8322C151.207 32.2002 151.568 32.3842 152.111 32.3842C152.654 32.3842 153.015 32.2002 153.377 31.8322C153.739 31.4642 153.92 31.0962 153.92 30.5442V18.4002C153.92 17.8482 153.739 17.4802 153.377 17.1122C153.196 16.9282 152.835 16.7442 152.292 16.7442ZM149.579 28.3362C148.855 29.2562 147.77 29.6242 146.504 29.6242C145.238 29.6242 144.334 29.0722 143.429 28.3362C142.706 27.4162 142.344 26.3122 142.344 24.8402C142.344 23.3682 142.706 22.2642 143.429 21.3442C144.153 20.4242 145.238 19.8722 146.504 19.8722C147.77 19.8722 148.675 20.4242 149.579 21.3442C150.302 22.2642 150.664 23.3682 150.664 24.8402C150.664 26.1282 150.302 27.2322 149.579 28.3362ZM167.485 22.6322C166.581 22.2642 165.495 21.8962 164.229 21.3442C162.602 20.7922 161.516 20.2402 160.612 19.6882C159.889 19.1362 159.346 18.2162 159.346 17.1122C159.346 16.0082 159.889 15.2722 160.612 14.5362C161.516 13.9842 162.602 13.6162 163.868 13.6162C164.772 13.6162 165.676 13.8002 166.581 14.1682C167.666 14.7202 168.209 15.2722 168.751 15.8242C168.932 16.0082 169.113 16.0082 169.294 16.0082C169.475 16.0082 169.836 15.8242 169.836 15.6402C169.836 15.4562 170.198 15.2722 170.198 15.0882C170.198 14.9042 170.017 14.5362 169.836 14.3522C169.294 13.6162 168.389 13.0642 167.485 12.6962C166.4 12.3282 165.495 12.1442 164.229 12.1442C162.963 12.1442 161.878 12.3282 160.974 12.8802C160.069 13.4322 159.165 13.9842 158.803 14.7202C158.261 15.4562 158.08 16.3762 158.08 17.4802C158.08 18.5842 158.261 19.5042 158.803 20.2402C159.346 20.9762 159.889 21.5282 160.793 22.0802C161.516 22.6322 162.602 22.8162 163.868 23.3682C164.953 23.7362 165.857 24.1042 166.581 24.4722C167.304 24.8402 167.847 25.2082 168.389 25.7602C168.932 26.3122 169.113 27.0482 169.113 27.7842C169.113 28.8882 168.57 29.6242 167.847 30.3602C166.942 30.9122 165.857 31.2802 164.41 31.2802C162.24 31.2802 160.431 30.5442 158.803 28.8882C158.622 28.7042 158.442 28.5202 158.261 28.5202C158.08 28.5202 157.899 28.7042 157.718 28.8882C157.537 29.0722 157.356 29.2562 157.356 29.4402C157.356 29.8082 157.537 29.9922 157.718 30.1762C158.622 31.0962 159.708 31.8322 160.793 32.3842C161.878 32.9362 162.963 33.1202 164.41 33.1202C165.676 33.1202 166.762 32.9362 167.847 32.3842C168.751 31.8322 169.655 31.2802 170.198 30.5442C170.741 29.8082 170.922 28.8882 170.922 27.9682C170.922 26.6802 170.56 25.7602 170.198 24.8402C169.113 23.7362 168.389 23.1842 167.485 22.6322ZM184.125 18.4002C183.04 17.8482 181.774 17.4802 180.508 17.4802C179.242 17.4802 177.975 17.8482 176.89 18.4002C175.805 18.9522 174.901 20.0562 174.358 21.1602C173.815 22.2642 173.454 23.5522 173.454 25.0242C173.454 26.4962 173.815 27.7842 174.358 28.8882C174.901 29.9922 175.805 30.9122 176.89 31.6482C177.975 32.2002 179.242 32.5682 180.508 32.5682C181.774 32.5682 183.04 32.2002 184.125 31.6482C185.21 31.0962 186.115 29.9922 186.657 28.8882C187.2 27.7842 187.562 26.4962 187.562 25.0242C187.562 23.5522 187.2 22.2642 186.657 21.1602C185.934 20.0562 185.21 19.1362 184.125 18.4002ZM185.21 28.3362C184.668 29.2562 184.125 29.9922 183.221 30.5442C182.316 31.0962 181.412 31.2802 180.508 31.2802C179.422 31.2802 178.518 30.9122 177.795 30.5442C177.071 30.1762 176.348 29.2562 175.805 28.3362C175.262 27.4162 175.082 26.4962 175.082 25.2082C175.082 24.1042 175.262 23.0002 175.805 22.0802C176.348 21.1602 176.89 20.4242 177.795 19.8722C178.518 19.3202 179.603 19.1362 180.508 19.1362C181.412 19.1362 182.497 19.5042 183.221 19.8722C184.125 20.4242 184.668 21.1602 185.21 22.0802C185.753 23.0002 185.934 23.9202 185.934 25.2082C185.934 26.3122 185.753 27.2322 185.21 28.3362ZM197.148 11.5922C196.605 11.4082 196.243 11.4082 195.701 11.4082C194.615 11.4082 193.711 11.7762 192.988 12.3282C192.264 12.8802 191.902 13.9842 191.902 15.0882V18.0322H189.913C189.732 18.0322 189.551 18.0322 189.37 18.2162C189.189 18.4002 189.189 18.5842 189.189 18.7682C189.189 18.9522 189.189 19.1362 189.37 19.3202C189.551 19.5042 189.732 19.5042 189.913 19.5042H191.902V31.4642C191.902 31.6482 191.902 32.0162 192.083 32.0162C192.264 32.2002 192.445 32.2002 192.626 32.2002C192.807 32.2002 193.169 32.2002 193.169 32.0162C193.349 31.8322 193.349 31.6482 193.349 31.4642V19.5042H196.424C196.605 19.5042 196.786 19.5042 196.967 19.3202C197.148 19.1362 197.148 18.9522 197.148 18.7682C197.148 18.5842 197.148 18.4002 196.967 18.2162C196.786 18.0322 196.605 18.0322 196.424 18.0322H193.349V15.0882C193.349 14.3522 193.53 13.8002 193.892 13.4322C194.254 13.0642 194.615 12.8802 195.339 12.8802C195.52 12.8802 195.882 12.8802 196.243 13.0642C196.424 13.2482 196.786 13.2482 196.786 13.2482C196.786 13.2482 197.148 13.2482 197.329 13.0642C197.509 12.8802 197.509 12.6962 197.509 12.5122C197.871 11.9602 197.69 11.7762 197.148 11.5922ZM207.095 19.5042C207.276 19.5042 207.457 19.5042 207.638 19.3202C207.819 19.1362 207.819 18.9522 207.819 18.7682C207.819 18.5842 207.819 18.4002 207.638 18.2162C207.457 18.0322 207.276 18.0322 207.095 18.0322H204.382V14.7202C204.382 14.5362 204.382 14.1682 204.202 14.1682C204.021 13.9842 203.84 13.9842 203.659 13.9842C203.478 13.9842 203.116 13.9842 203.116 14.1682C202.574 14.1682 202.574 14.3522 202.574 14.7202V17.8482H200.584C200.403 17.8482 200.222 17.8482 200.042 18.0322C199.861 18.2162 199.861 18.4002 199.861 18.5842C199.861 18.7682 199.861 18.9522 200.042 19.1362C200.222 19.3202 200.403 19.3202 200.584 19.3202H202.574V29.0722C202.574 30.1762 202.755 30.9122 203.116 31.2802C203.478 31.8322 203.84 32.0162 204.202 32.2002C204.563 32.3842 205.106 32.3842 205.648 32.3842C206.01 32.3842 206.372 32.2002 206.734 32.0162C207.095 31.8322 207.276 31.6482 207.276 31.2802C207.276 31.0962 207.276 30.9122 207.095 30.7282C206.915 30.5442 206.734 30.5442 206.553 30.5442C206.372 30.5442 206.372 30.5442 206.191 30.5442C206.01 30.5442 205.829 30.5442 205.829 30.5442C205.287 30.5442 205.106 30.3602 204.744 30.1762C204.382 29.9922 204.382 29.4402 204.382 28.7042V19.1362H207.095V19.5042Z" fill="#4B4B4B"/>
</g>
<defs>
<linearGradient id="paint0_linear_629_12" x1="7.72923" y1="39.6306" x2="42.0553" y2="5.88864" gradientUnits="userSpaceOnUse">
<stop stop-color="#0090C6"/>
<stop offset="1" stop-color="#1EDDD6"/>
</linearGradient>
<clipPath id="clip0_629_12">
<rect width="208" height="46" fill="white" transform="translate(0 0.000152588)"/>
</clipPath>
</defs>
</svg>
